
<svg width="113" height="112" viewBox="0 0 113 112" fill="none" xmlns="http://www.w3.org/2000/svg">
<g clip-path="url(#clip0_343_2399)">
<path d="M80.3608 93.9883L81.4786 112C81.4786 112 34.1979 74.2327 28.3075 63.1825C22.4172 52.1322 33.5049 24.7974 33.5049 24.7974L58.1057 36.1384L80.3608 93.9883Z" fill="#9F616A"/>
<path d="M7.86454 17.2366L0.588241 17.8182C0.588241 17.8182 -3.22317 24.7973 8.55753 25.3789L7.86454 17.2366Z" fill="#9F616A"/>
<path d="M7.86454 27.9961L0.588241 28.5777C0.588241 28.5777 -3.22317 35.5568 8.55753 36.1384L7.86454 27.9961Z" fill="#9F616A"/>
<path d="M7.86454 39.6279L0.588241 40.2095C0.588241 40.2095 -3.22317 47.1886 8.55753 47.7702L7.86454 39.6279Z" fill="#9F616A"/>
<path d="M9.94352 51.2598L2.66722 51.8414C2.66722 51.8414 -1.14419 58.8205 10.6365 59.4021L9.94352 51.2598Z" fill="#9F616A"/>
<path d="M4.32214 20.0404H4.87425V7.34675C4.87425 6.38197 5.10067 5.42662 5.54059 4.53528C5.98051 3.64393 6.62531 2.83403 7.43818 2.15182C8.25105 1.46961 9.21606 0.928451 10.2781 0.559241C11.3402 0.190032 12.4785 7.3918e-07 13.6281 0H45.672C46.8216 -1.9711e-06 47.9599 0.190026 49.022 0.559233C50.084 0.928439 51.049 1.4696 51.8619 2.1518C52.6748 2.83401 53.3196 3.64391 53.7595 4.53525C54.1994 5.4266 54.4259 6.38194 54.4259 7.34673V76.9852C54.4259 77.9499 54.1994 78.9053 53.7595 79.7966C53.3196 80.688 52.6748 81.4979 51.8619 82.1801C51.0491 82.8623 50.0841 83.4035 49.022 83.7727C47.9599 84.1419 46.8216 84.3319 45.6721 84.3319H13.6281C11.3065 84.3319 9.07988 83.5579 7.43821 82.1801C5.79655 80.8023 4.87427 78.9337 4.87426 76.9852V29.076H4.32214V20.0404Z" fill="#3F3D56"/>
<path d="M13.2748 1.91138H17.4576C17.2653 2.30717 17.1918 2.73659 17.2438 3.16181C17.2958 3.58702 17.4715 3.99499 17.7556 4.34976C18.0397 4.70454 18.4234 4.99523 18.8729 5.19624C19.3224 5.39725 19.8239 5.5024 20.3332 5.50244H38.6908C39.2001 5.50241 39.7016 5.39725 40.1511 5.19625C40.6005 4.99524 40.9842 4.70454 41.2683 4.34977C41.5524 3.99499 41.7282 3.58702 41.7802 3.16181C41.8321 2.73659 41.7587 2.30717 41.5663 1.91138H45.4731C47.2069 1.91138 48.8696 2.48941 50.0956 3.51832C51.3216 4.54723 52.0103 5.94274 52.0103 7.39784V76.9341C52.0103 77.6546 51.8413 78.368 51.5127 79.0337C51.1842 79.6993 50.7027 80.3041 50.0956 80.8136C49.4886 81.3231 48.7679 81.7272 47.9748 82.0029C47.1816 82.2787 46.3316 82.4206 45.4731 82.4206H13.2748C12.4163 82.4206 11.5663 82.2787 10.7731 82.0029C9.97998 81.7272 9.25931 81.3231 8.65227 80.8136C8.04523 80.3041 7.5637 79.6993 7.23517 79.0337C6.90664 78.368 6.73755 77.6546 6.73755 76.9341V7.39784C6.73755 6.67735 6.90664 5.96391 7.23517 5.29826C7.5637 4.63262 8.04523 4.02779 8.65227 3.51833C9.25931 3.00886 9.97998 2.60473 10.7731 2.32901C11.5663 2.05329 12.4163 1.91138 13.2748 1.91138Z" fill="white"/>
<path d="M36.2724 21.3921H22.4756V24.1862H36.2724V21.3921Z" fill="#E0371D"/>
<path d="M36.9292 33.3984H21.8187V36.1926H36.9292V33.3984Z" fill="#E5E5E5"/>
<path d="M46.2366 39.4004H12.5114V42.1945H46.2366V39.4004Z" fill="#E5E5E5"/>
<path d="M46.2366 45.4026H12.5114V48.1967H46.2366V45.4026Z" fill="#E5E5E5"/>
<path d="M113 103.369L74.2175 66.2357L72.8316 42.3904L58.279 22.0347L54.1211 13.3108C54.1211 13.3108 44.4193 14.1832 52.3886 30.7586L55.6803 39.6278C52.7131 44.9914 51.1759 50.8337 51.1759 56.7472V77.0711C51.1759 81.8567 78.3491 107.924 81.5121 111.906L113 103.369Z" fill="#9F616A"/>
<path opacity="0.2" d="M55.2619 23.7598L58.1549 22.5665L58.0563 22.398L55.3833 23.5007L51.3481 14.6218L51.1393 14.6888L55.2619 23.7598Z" fill="black"/>
<path opacity="0.2" d="M0.626966 17.7299L0.549683 17.906L4.83544 19.231L4.91272 19.0549L0.626966 17.7299Z" fill="black"/>
<path opacity="0.2" d="M0.626966 28.612L0.549683 28.7881L4.83544 30.1131L4.91272 29.937L0.626966 28.612Z" fill="black"/>
<path opacity="0.2" d="M0.626966 40.2446L0.549683 40.4207L4.83544 41.7456L4.91272 41.5695L0.626966 40.2446Z" fill="black"/>
<path opacity="0.2" d="M2.87235 51.8804L2.77563 52.0496L4.86219 52.89L4.95891 52.7209L2.87235 51.8804Z" fill="black"/>
<path d="M29.3911 72.3104C34.7286 72.3104 39.0555 68.679 39.0555 64.1995C39.0555 59.72 34.7286 56.0886 29.3911 56.0886C24.0537 56.0886 19.7268 59.72 19.7268 64.1995C19.7268 68.679 24.0537 72.3104 29.3911 72.3104Z" fill="#6FBEA7"/>
<path d="M28.9584 68.2916V65.0416H25.7084V63.9583H28.9584V60.7083H30.0417V63.9583H33.2917V65.0416H30.0417V68.2916H28.9584Z" fill="white"/>
</g>
<defs>
<clipPath id="clip0_343_2399">
<rect width="113" height="112" fill="white"/>
</clipPath>
</defs>
</svg>
